<?xml version="1.0" encoding="utf-8"?>
<svg viewBox="0 0 500 500" xmlns="http://www.w3.org/2000/svg">
  <g id="Bild" transform="matrix(1.225587, 0, 0, 1.137068, 39.922874, 49.256447)">
    <g id="Ebene_8" data-name="Ebene 8">
      <g id="Plasma_2" data-name="Plasma 2">
        <path class="cls-15" d="M134.4,148.64S123.73,141,121.73,123.3s2.45-29.49,10.45-38.49S147.06,73.3,147.06,73.3a38.61,38.61,0,0,0-1.66-11.66c-.88-3-2.34-7-2.34-7a10,10,0,0,1,6.37-5.91c4.66-1.43,7.3.24,7.3.24a22.42,22.42,0,0,1,4,9.33,36.06,36.06,0,0,1,.67,9.34s5-3.44,6.66-7.67a72.06,72.06,0,0,0,3-11,11.44,11.44,0,0,1,5.78-.58c4.72,1,4.56,3.58,4.56,3.58v2.67a7,7,0,0,1,6.33-.67c3.67,1.33,3.67,3.33,3.67,3.33l-2.67,15a28.37,28.37,0,0,1,13.45,16c4,11.67,2.87,19.5,2.87,19.5L189.4,124.64l-8.67,12.66L161.06,141l-8.66,6-7,7.33Z" style="fill: rgb(244, 164, 143); stroke: rgb(195, 74, 41); stroke-linecap: round; stroke-linejoin: round; stroke-width: 2px;"/>
        <path class="cls-16" d="M143.4,154.64s-7-10.67-25-12c-15.3-1.14-33.32,4.6-43,28-13.67,33,8.66,58,8.66,58S78.73,250.3,94.4,271c28.21,37.22,117.33,64,154.33,49.67C283.83,307,261,181.39,238.4,177.3A47.26,47.26,0,0,0,239.73,159c-2-18-15-35.33-44.67-31l-18,.67-11.33,16Z" style="fill: rgb(244, 222, 216); stroke: rgb(195, 74, 41); stroke-miterlimit: 10; stroke-width: 2px;"/>
        <path class="cls-17" d="M249.06,261.3c-.29,18.38-10,34-24,29.67S191.4,240.64,186.4,229.3s-10.67-9.33-13.34-16.66c-1.06-2.92-.18-9.92,1.27-17.33,2.14-2.4,7.47-1.3,10.93,1.5,4,3.21,8.83,8.43,9.67,8.33,1.75-.21.29-6.62-8.63-14.08-1.64-1.38-6.77-4.49-8.65-6.73-1.22-2.77-.66-6.62-.22-8.35a30.12,30.12,0,0,0,1-4.34l1.3-11.34L184,137.89a42.81,42.81,0,0,1,28-2.75c11.33,2.66,18.69,11.75,20,18.5a47,47,0,0,1-1.59,22.58h0c-2.63,4.54-8.5,12-10.32,14.25-4.8,6-4.86,13-2.43,12.48,1.46-.3,2.43-6.48,10.55-12.94,3.42-2.71,7.75-2.71,8.35-2.15a54.12,54.12,0,0,1,7.7,16.52C248.26,219.26,249.4,240.3,249.06,261.3Z" style="fill: rgb(233, 188, 176); stroke: rgb(195, 74, 41); stroke-linecap: round; stroke-linejoin: round; stroke-width: 1.25px;"/>
        <path class="cls-17" d="M200.4,307c-8.4.54-67.34-15.33-90.67-41-14.75-16.23-13.5-37.58-13.5-37.58,3-1.91,5-4.67,8.5-2.46s7.53,6.88,7.53,3.55S108.07,222,101.9,220s-10.84,3.8-17.24-3.45c-.11-.13-4.73-5.08-6.18-18.67-1.67-15.61,2.75-27,9.25-35.5,8.55-11.18,24.08-18.08,38.25-12,12.25,5.25,7.75,18.5,7.75,18.5s-1.44,2.75-4.93,17.09-2.87,23.5-2.87,23.5-1.49,14.66,4.66,13.66c.58-.09-2.74-4.61.71-14.87,1.23-3.64,1.53-13.05,3.43-18.79a132.74,132.74,0,0,1,9.75-22.59c3.5-11.25,13.12-13.13,19.5-11,14.25,4.75,9,21,9,21A405.18,405.18,0,0,0,164.73,218c-1.92,13.2,11.33,46.33,24.33,66S210.73,306.3,200.4,307Z" style="fill: rgb(233, 188, 176); stroke: rgb(195, 74, 41); stroke-linecap: round; stroke-linejoin: round; stroke-width: 1.25px;"/>
        <path class="cls-18" d="M139.09,163.7s.58-9.33,7.91-21.67,12.67-17.66,12.67-17.66-3.15-5.37-3.08-5.52-.91-6.42,4.34-10.54c5.6-4.4,9.75-2.5,9.75-2.5l5.5,4.5A144.87,144.87,0,0,1,203,101.37c14-3,31.67-1.34,31.67-1.34l-1,17.67s-13,.33-20.67,2.67-16.27,5.27-22.33,14.66C181.53,149.19,177.59,174,177.59,174s3.75-16.25-12.25-21.5C144.82,145.72,139.09,163.7,139.09,163.7Z" style="fill: rgb(177, 226, 232); stroke: rgb(195, 74, 41); stroke-linecap: round; stroke-linejoin: round; stroke-width: 2px;"/>
        <path class="cls-19" d="M233.72,118.46c2.82.17,5.35-3.92,5.66-9.14s-1.73-9.58-4.55-9.75-5.35,3.93-5.66,9.15S230.9,118.3,233.72,118.46Z" style="fill: rgb(219, 242, 245); stroke: rgb(195, 74, 41); stroke-linecap: round; stroke-linejoin: round;"/>
        <path class="cls-20" d="M231.42,108.85a12.29,12.29,0,0,1,1.55-5.54c.66-1.06,1.34-1.51,1.73-1.49.92.05,1.53,1.6,1.79,2.3a12.44,12.44,0,0,1,.64,5.07,12.29,12.29,0,0,1-1.55,5.54c-.66,1.06-1.34,1.51-1.73,1.49a.88.88,0,0,1-.29-.09C232.56,115.59,231.18,112.91,231.42,108.85Z" style="fill: rgb(85, 191, 205); stroke: rgb(195, 74, 41); stroke-linecap: round; stroke-linejoin: round;"/>
        <ellipse cx="226.867" cy="412.377" rx="33.04" ry="38.059" transform="matrix(0.985537, -0.169462, 0.142424, 0.990186, -72.501434, -205.674316)" style="fill: rgba(58, 58, 58, 0.63);"/>
        <path class="cls-15" d="M 227.818 168.69 C 226.818 168.23 236.533 152.151 244.853 152.731 C 248.852 152.96 250.836 156.472 254.4 158.3 C 255.005 160.594 255.005 163.006 254.4 165.3 C 253.714 167.495 252.304 169.391 250.4 170.68 L 218.176 191.89 L 227.818 168.69 Z" style="fill: rgb(244, 164, 143); stroke: rgb(195, 74, 41); stroke-linecap: round; stroke-linejoin: round; stroke-width: 2px;"/>
        <ellipse cx="324.859" cy="427.009" rx="47.311" ry="39.409" transform="matrix(0.860453, -0.50953, 0.200863, 1.043235, -262.418854, -99.950279)" style="fill: rgba(58, 58, 58, 0.63);"/>
        <path class="cls-15" d="M 211.309 161.635 C 210.123 160.273 225.73 129.97 230.06 128.64 C 234.39 127.31 237.3 126.43 237.3 126.43 C 239.842 127.723 241.611 130.154 242.06 132.97 C 243.06 137.97 241.06 138.64 241.06 138.64 C 237.652 140.85 217.081 198.656 213.041 199.075 C 206.371 199.735 200.617 199.45 200.617 199.45 C 194.494 200.253 209.162 162.096 211.309 161.635 Z" style="fill: rgb(244, 164, 143); stroke: rgb(195, 74, 41); stroke-linecap: round; stroke-linejoin: round; stroke-width: 2px;"/>
        <path class="cls-15" d="M 125.323 210.022 C 126.365 207.836 81.4 151.3 74.73 150.3 C 70.956 149.734 67.253 148.768 63.73 147.3 C 63.73 147.3 60.56 147.81 59.4 150.3 C 57.06 155.3 59.73 158.3 59.73 158.3 L 72.73 165.64 L 55.4 176.64 C 54.641 178.783 55.017 181.165 56.4 182.97 C 58.73 186.3 78.905 179.982 78.905 179.982 C 79.183 178.818 108.104 222.738 109.467 222.461 C 111.333 224.617 127.029 212.526 125.323 210.022 Z" style="stroke: rgb(195, 74, 41); stroke-linecap: round; stroke-linejoin: round; stroke-width: 2px; fill: rgb(177, 226, 232);"/>
      </g>
    </g>
    <circle class="cls-21" cx="134.88" cy="74.29" r="8.05" style="fill: rgb(241, 172, 106); stroke: rgb(195, 74, 41); stroke-linecap: round; stroke-linejoin: round; stroke-width: 2px;"/>
    <circle class="cls-21" cx="132.69" cy="85.19" r="8.05" style="fill: rgb(241, 172, 106); stroke: rgb(195, 74, 41); stroke-linecap: round; stroke-linejoin: round; stroke-width: 2px;"/>
  </g>
  <ellipse cx="148.793" cy="242.999" rx="21.669" ry="22.426" transform="matrix(0.987513, -0.157538, 0.153203, 0.988204, 21.829618, -75.454796)" style="fill: rgba(58, 58, 58, 0.63);"/>
  <text class="cls-38" transform="matrix(1.764574, 0, 0, 1.716664, -221.272369, -98.689941)" style="fill: rgba(0, 0, 0, 0.55); font-family: ArialMT, Arial; font-size: 9.90293px; white-space: pre;" x="182.719" y="121.531">Baroreceptors</text>
  <text class="cls-38" transform="matrix(1.764574, 0, 0, 1.716664, -202.272369, -98.689941)" style="font-family: ArialMT, Arial; font-size: 15.7282px; line-height: 24.233px; white-space: pre;" x="256.208" y="112.835">Aorta</text>
  <text class="cls-38" transform="matrix(1.764574, 0, 0, 1.716664, -203.272369, -98.689941)" style="font-family: ArialMT, Arial; font-size: 8.15535px; font-weight: bold; stroke: rgb(255, 255, 255); stroke-width: 0.3px; white-space: pre;" x="214.734" y="260.52" dx="59.601 0 0 0 0 -15.419" dy="-20.263 0 0 0 0 8.947">Left Ventricle</text>
  <text class="cls-38" transform="matrix(1.764574, 0, 0, 1.716664, -219.272369, -113.689941)" style="font-family: ArialMT, Arial; font-size: 13.3981px; line-height: 21.4369px; white-space: pre;" x="307.685" y="157.378" dx="0 0 0 0 0 0 0 0 0 0 -38.897" dy="0 0 0 0 0 0 0 0 0 0 12.168">Pulmonary Artery</text>
  <text class="cls-38" transform="matrix(1.764574, 0, 0, 1.716664, -205.272369, -93.689941)" style="font-family: ArialMT, Arial; font-size: 12.233px; line-height: 21.4369px; white-space: pre;" x="312.824" y="183.755" dx="0 0 0 0 0 0 0 0 0 0 -33.26" dy="0 0 0 0 0 0 0 0 0 0 13.328">Pulmonary Veins</text>
  <text class="cls-38" transform="matrix(1.764574, 0, 0, 1.716664, -202.272369, -92.689941)" style="font-family: ArialMT, Arial; font-size: 13.3981px; line-height: 21.4369px; white-space: pre;" x="130.767" y="196.19" dx="0 0 0 0 0 -22.549" dy="0 0 0 0 0 16.225">Vena Cava</text>
  <text class="cls-38" transform="matrix(1.764574, 0, 0, 1.716664, -299.406281, -91.443985)" style="font-family: ArialMT, Arial; font-size: 9.3204px; font-weight: bold; stroke: rgb(255, 255, 255); stroke-width: 0.3px; white-space: pre;" x="214.734" y="260.52" dx="59.601" dy="-20.263">Valve</text>
  <text class="cls-38" transform="matrix(1.764574, 0, 0, 1.716664, -243.417542, -16.612747)" style="fill: rgba(0, 0, 0, 0.55); font-family: ArialMT, Arial; font-size: 10.4855px; line-height: 16.7767px; white-space: pre;" x="182.719" y="121.531">Right Atrium</text>
  <text x="566.461" y="148.059" style="white-space: pre;">Enter your text here</text>
</svg>