<svg xmlns="http://www.w3.org/2000/svg" xmlns:xlink="http://www.w3.org/1999/xlink" viewBox="0 0 108 134.59"><defs><style>.cls-1{fill:#fdeabf;}.cls-2{fill:#f0d2ca;}.cls-2,.cls-3,.cls-4{stroke:#c34a29;stroke-linecap:round;stroke-linejoin:round;stroke-width:2px;}.cls-3{fill:#8fd5de;}.cls-4{fill:#f5ab96;}.cls-5{font-size:14px;font-family:Arial-BoldMT, Arial;font-weight:700;}</style><symbol id="Kidney" data-name="Kidney" viewBox="0 0 90 112.16"><circle class="cls-1" cx="45" cy="67.15" r="45"/><path class="cls-2" d="M67.18,43.06c0,29.47-21.82,45.64-38.48,33.38C14.53,66,27.21,52.11,27.21,52.11a15.56,15.56,0,0,1-2.79-5.29,12.87,12.87,0,0,1-.52-2.53c0-.29,0-.6-.06-.92s0-.72,0-1.07a9.59,9.59,0,0,1,.54-2.54,10.44,10.44,0,0,1,3-4.36s-9.28-.25-12.83-10.63C11.56,16.07,16.35.05,35.8,1,56.74,2.11,67.18,28.52,67.18,43.06Z"/><path class="cls-3" d="M23.84,43.37c0,.32,0,.63.06.92h-.14A16.11,16.11,0,0,1,18,43.08a14.9,14.9,0,0,1-8.63-9.93,2.3,2.3,0,0,1,4.49-1,10.36,10.36,0,0,0,10.1,7.58,2.63,2.63,0,0,1,.49.07,9.59,9.59,0,0,0-.54,2.54C23.84,42.65,23.83,43,23.84,43.37Z"/><path class="cls-4" d="M24.42,46.82l-.27.06-5.56.76a5.5,5.5,0,0,0-4.73,5.42V87.3a2.3,2.3,0,0,1-4.6,0V53.06a10.13,10.13,0,0,1,8.69-10h0l5.55-.77h.34c0,.35,0,.71,0,1.07s0,.63.06.92A12.87,12.87,0,0,0,24.42,46.82Z"/><text class="cls-5" transform="translate(22.05 99.77)">Kidney</text></symbol></defs><title>Element 4</title><g id="Ebene_2" data-name="Ebene 2"><g id="Icons"><use width="90" height="112.15" transform="scale(1.2)" xlink:href="#Kidney"/></g></g></svg>